<svg width="106" height="25" viewBox="0 0 106 25" fill="none" xmlns="http://www.w3.org/2000/svg">
<path d="M15.5625 17.6562C15.5625 19.0104 15.2344 20.1875 14.5781 21.1875C13.9219 22.1875 12.9635 22.9583 11.7031 23.5C10.4531 24.0417 8.93229 24.3125 7.14062 24.3125C6.34896 24.3125 5.57292 24.2604 4.8125 24.1562C4.0625 24.0521 3.33854 23.901 2.64062 23.7031C1.95312 23.4948 1.29688 23.2396 0.671875 22.9375V18.4375C1.75521 18.9167 2.88021 19.349 4.04688 19.7344C5.21354 20.1198 6.36979 20.3125 7.51562 20.3125C8.30729 20.3125 8.94271 20.2083 9.42188 20C9.91146 19.7917 10.2656 19.5052 10.4844 19.1406C10.7031 18.776 10.8125 18.3594 10.8125 17.8906C10.8125 17.3177 10.6198 16.8281 10.2344 16.4219C9.84896 16.0156 9.31771 15.6354 8.64062 15.2812C7.97396 14.9271 7.21875 14.5469 6.375 14.1406C5.84375 13.8906 5.26562 13.5885 4.64062 13.2344C4.01562 12.8698 3.42188 12.4271 2.85938 11.9062C2.29688 11.3854 1.83333 10.7552 1.46875 10.0156C1.11458 9.26562 0.9375 8.36979 0.9375 7.32812C0.9375 5.96354 1.25 4.79688 1.875 3.82812C2.5 2.85938 3.39062 2.11979 4.54688 1.60938C5.71354 1.08854 7.08854 0.828125 8.67188 0.828125C9.85938 0.828125 10.9896 0.96875 12.0625 1.25C13.1458 1.52083 14.276 1.91667 15.4531 2.4375L13.8906 6.20312C12.8385 5.77604 11.8958 5.44792 11.0625 5.21875C10.2292 4.97917 9.38021 4.85938 8.51562 4.85938C7.91146 4.85938 7.39583 4.95833 6.96875 5.15625C6.54167 5.34375 6.21875 5.61458 6 5.96875C5.78125 6.3125 5.67188 6.71354 5.67188 7.17188C5.67188 7.71354 5.82812 8.17188 6.14062 8.54688C6.46354 8.91146 6.94271 9.26562 7.57812 9.60938C8.22396 9.95312 9.02604 10.3542 9.98438 10.8125C11.151 11.3646 12.1458 11.9427 12.9688 12.5469C13.8021 13.1406 14.4427 13.8438 14.8906 14.6562C15.3385 15.4583 15.5625 16.4583 15.5625 17.6562ZM38.4219 24H33.5938V14.1406H24.5469V24H19.7031V1.15625H24.5469V10.1094H33.5938V1.15625H38.4219V24ZM58.1875 24L56.5312 18.5625H48.2031L46.5469 24H41.3281L49.3906 1.0625H55.3125L63.4062 24H58.1875ZM55.375 14.5L53.7188 9.1875C53.6146 8.83333 53.474 8.38021 53.2969 7.82812C53.1302 7.26562 52.9583 6.69792 52.7812 6.125C52.6146 5.54167 52.4792 5.03646 52.375 4.60938C52.2708 5.03646 52.125 5.56771 51.9375 6.20312C51.7604 6.82812 51.5885 7.42188 51.4219 7.98438C51.2552 8.54688 51.1354 8.94792 51.0625 9.1875L49.4219 14.5H55.375ZM72.9531 1.15625C75.026 1.15625 76.7344 1.40625 78.0781 1.90625C79.4323 2.40625 80.4375 3.16146 81.0938 4.17188C81.75 5.18229 82.0781 6.45833 82.0781 8C82.0781 9.04167 81.8802 9.95312 81.4844 10.7344C81.0885 11.5156 80.5677 12.1771 79.9219 12.7188C79.276 13.2604 78.5781 13.7031 77.8281 14.0469L84.5469 24H79.1719L73.7188 15.2344H71.1406V24H66.2969V1.15625H72.9531ZM72.6094 5.125H71.1406V11.2969H72.7031C74.3073 11.2969 75.4531 11.0312 76.1406 10.5C76.8385 9.95833 77.1875 9.16667 77.1875 8.125C77.1875 7.04167 76.8125 6.27083 76.0625 5.8125C75.3229 5.35417 74.1719 5.125 72.6094 5.125ZM105.797 24H100.297L94.3125 14.375L92.2656 15.8438V24H87.4219V1.15625H92.2656V11.6094C92.5885 11.1615 92.9062 10.7135 93.2188 10.2656C93.5312 9.81771 93.849 9.36979 94.1719 8.92188L100.359 1.15625H105.734L97.7656 11.2656L105.797 24Z" fill="white"/>
</svg>
