<?xml version="1.0" encoding="UTF-8"?>
<svg id="Layer_1" data-name="Layer 1" xmlns="http://www.w3.org/2000/svg" viewBox="0 0 535.83 477.41">
  <path d="m118.01,235.6c-.18-13.05,1.92-25.88,4.46-38.6,4.16-20.84,8.83-41.58,13.28-62.36.21-.98.44-1.95.61-2.93.17-1.07-.29-1.67-1.38-1.28-10.88,3.86-21.8,8.11-30.02,16.35-8.87,8.89-15,19.64-14,32.97.22,2.92.96,5.94,2.14,8.62,2.33,5.26-2.38,12.49-9.53,11.41-2.9-.44-5.06-2.07-6.15-4.57-1.45-3.32-2.66-6.81-3.42-10.35-1.5-6.98-.69-14,1.34-20.71,5.04-16.68,14.39-30.15,29.82-39.05,9.72-5.61,19.92-10.01,30.66-13.06,3.95-1.12,5.98-2.65,6.69-7.06,1.51-9.34,3.9-18.53,5.84-27.79.58-2.76.77-5.6,1.31-8.37,1.07-5.47,4.58-7.92,10.03-7.14,4.51.65,7.62,4.87,6.78,9.96-1.51,9.17-3.37,18.28-5.02,27.43-.43,2.38-.63,4.79-.94,7.19,2.28-.19,4.57-.35,6.85-.56,7.55-.7,7.35-.76,9.43-8.03,2.52-8.78,5.41-17.45,8.18-26.15.65-2.06,1.57-4.03,2.18-6.1,3.14-10.63,10.34-18.15,19.14-24.15,5.16-3.52,11.15-4.9,17.58-3.76,6.96,1.24,11.75,5.2,14.97,11.26,3.81,7.16,4.64,14.95,3.81,22.82-1.1,10.44-4.61,20.04-11.61,28.15-5.12,5.92-11.51,10-18.53,13.21-6.52,2.99-13.31,5.25-20.35,6.57-2.58.48-3.69,1.6-4.14,4.06-2.66,14.55-5.41,29.08-8.13,43.61-.31,1.63-.64,3.26-.88,4.9-.06.42.23.9.35,1.34.39-.29.86-.52,1.16-.89,5.17-6.3,10.18-12.75,15.55-18.86,2.38-2.71,5.24-5.21,8.35-7,6.53-3.76,14.4.83,14.49,8.38.05,4.12-.48,8.29-1.18,12.37-2.41,14.08-5.15,28.11-7.49,42.2-2.3,13.84-3.01,27.81-2.21,41.82.2,3.62,1.12,7.22,1.95,10.77.68,2.93,1.91,5.35,4.82,7.14,4.16,2.56,4.85,7.38,2.4,11.35-2.45,3.97-6.88,5.21-11.33,3.03-4.48-2.2-7.71-5.63-10-10.09-3.04-5.9-4.02-12.29-4.92-18.71-1.64-11.64-.39-23.21.67-34.83,1.19-13.11,3.77-25.97,6-38.9.1-.57-.16-1.2-.26-1.81-.47.45-1.01.85-1.4,1.36-8.99,11.71-15.57,24.73-21.1,38.35-2.19,5.41-3.79,10.97-4.87,16.71-.74,3.94-.89,3.99-4.9,3.93-3.32-.05-6.67-.04-9.93-.55-2.99-.47-3.31-1.26-2.84-4.1,1.45-8.85,3.04-17.68,4.35-26.55,1.2-8.06,2.01-16.17,3.17-24.23,1.42-9.86,2.89-19.72,4.58-29.54,1.63-9.49,3.56-18.92,5.35-28.38.12-.65.39-1.41.18-1.96-.23-.6-1-1.51-1.42-1.45-3.95.54-7.92,1.09-11.78,2.05-.83.21-1.54,1.98-1.82,3.15-2.05,8.73-4.08,17.47-5.93,26.24-3.64,17.22-7.56,34.4-10.62,51.73-2.16,12.26-4.06,24.64-3.37,37.21.13,2.33.07,4.67-1.59,6.63-2.55,3.01-5.79,3.78-9.47,2.87-3.71-.92-5.52-3.72-5.88-7.25-.33-3.3-.07-6.66-.07-9.99Zm107.76-168.95c-.47-2.61-.72-5.29-1.47-7.82-1.31-4.43-4.27-5.56-8.37-3.26-1.57.88-3.03,2.08-4.28,3.38-1.48,1.55-2.94,3.24-3.95,5.12-2.05,3.78-4.11,7.61-5.59,11.64-2.81,7.62-5.26,15.39-7.78,23.11-.51,1.57.19,2.31,1.72,1.82,3.16-1.01,6.34-2.01,9.35-3.37,13.14-5.93,19.81-16.21,20.37-30.62Z"/>
  <path d="m256.57,323.24c.12-13.97,2.09-25.9,6.5-37.34.83-2.15.71-3.74-.47-5.54-4.57-7,.65-18.11,11-19.59,6.07-.87,11.63.69,16.37,4.49,2.43,1.95,4.58,2.44,7.67,1.61,5.92-1.58,12-2.57,18.03-3.76,3.35-.66,6.71-.3,9.85.83,4.37,1.57,6.92,5.02,8.36,9.32,1.47,4.37,1.32,8.91.8,13.36-1.24,10.39-2.84,20.74-4.14,31.12-.31,2.46,0,5,.02,7.5,1.15-1.98,2.44-3.9,3.41-5.97,6.84-14.61,13.26-29.39,18.26-44.75.62-1.89,1.32-3.78,2.23-5.55,1.12-2.18,2.37-2.73,4.47-1.71,3.59,1.73,7.04,3.76,10.53,5.68,1.25.69,1.19,1.75.97,3.02-.65,3.6-1.05,7.24-1.74,10.83-1.89,9.86-2.37,19.82-1.71,29.8.19,2.92,1.08,5.88,2.14,8.64,1.16,3.04,2.19,3.44,5.41,2.53,3.51-.99,6.98-2.17,10.37-3.51,10.54-4.18,21.36-7.49,32.59-9.01,13.74-1.87,27.51-2.48,40.92,2.43,4.3,1.57,8.05,3.84,11.35,7.03,3.84,3.7,3.09,8.83.73,11.75-2.77,3.42-7.23,4.23-11.15,1.46-3.89-2.75-7.93-4.99-12.61-5.55-5.09-.61-10.25-1.01-15.37-.94-16.94.22-32.56,5.99-48.13,11.88-4.52,1.71-9.13,2.71-14.13,1.78-7.13-1.32-12.07-5.22-15.23-11.58-.66-1.34-1.16-2.76-1.79-4.11-.53-1.14-1.14-2.24-1.72-3.35-.7,1.12-1.42,2.21-2.08,3.35-2.83,4.88-5.52,9.86-8.53,14.63-1.31,2.08-3.22,3.8-4.96,5.59-5.43,5.61-16.49,4.6-19.67-4.31-1.15-3.24-1.92-6.74-2.17-10.17-.87-11.85.59-23.58,2.4-35.27.89-5.75,1.41-11.55,2.12-17.33.16-1.27-.39-2.06-1.6-1.85-3.59.63-7.17,1.38-10.73,2.19-1.49.34-.9,1.47-.61,2.39,2.5,7.9,2.99,16.03,2.32,24.19-1.21,14.64-5.65,28.01-16.59,38.49-2.77,2.66-5.9,4.69-9.62,6.01-6.45,2.28-14.34-.37-18.62-6.96-2.9-4.46-4.22-9.4-4.93-14.5-.51-3.61-.42-7.3-.52-9.22Zm33.36-19.21c.22-4.89-.61-9.62-2.21-14.19-.37-1.06-1.63-2.54-2.51-2.55-1.87-.04-4.04.14-4.95,2.5-.65,1.7-1.64,3.28-2.15,5.01-3.3,11.05-5.04,22.31-4.08,33.87.16,1.97.6,3.94,1.12,5.85.69,2.5,1.53,2.73,3.29.96,1.16-1.17,2.25-2.44,3.23-3.77,6.04-8.24,7.75-17.78,8.27-27.66Z"/>
  <path d="m248.75,367.21c-.02.67-.03,1.33-.04,2-.05,4.86.02,5.1,4.57,4.13,4.42-.93,8.65-.06,12.85.77,3.94.78,6.56,4.08,6.81,7.66.27,3.78-1.55,7.27-4.92,8.45-1.81.63-3.9.52-5.87.61-3.31.16-6.68-.12-9.93.4-4.24.67-4.21.92-4.34,5.15-.28,9.16-1.06,18.26-2.98,27.24-1.29,6.04-3.16,11.9-6.33,17.25-4.14,6.99-9.72,11.93-17.89,14.07-7.79,2.04-19.33-2.38-22.64-13.38-1.95-6.47-1.25-12.81.6-19.16,3.01-10.31,8.71-19.07,16.06-26.7,4.25-4.41,9.12-8.23,13.84-12.16,1.51-1.26,2.44-2.42,2.48-4.53.26-13.32.66-26.64,1-39.97.02-.83,0-1.67-.07-2.5-.02-.32-.19-.63-.29-.94-.25.3-.58.56-.75.91-1.43,2.81-2.77,5.67-4.26,8.46-5.57,10.46-11.62,20.6-19.76,29.31-3.77,4.04-7.87,7.69-13.04,9.89-9.2,3.92-18.44,2.02-24.87-5.6-2.75-3.26-5.12-7.02-6.89-10.91-4.22-9.31-6.18-19.25-7.28-29.39-1.74-15.96-1.61-31.97-.66-47.92.56-9.41,2.39-18.78,4.16-28.07,1.22-6.36,6.42-8.85,12.02-6.55,3.58,1.47,5.03,4.33,4.84,7.93-.17,3.14-.7,6.28-1.3,9.37-3.38,17.45-3.66,35.08-2.78,52.73.55,10.97,1.79,21.9,5.78,32.27,1.12,2.92,2.6,5.78,4.37,8.35,2.31,3.36,4.47,3.67,7.47.93,3.67-3.35,7.22-6.91,10.33-10.77,7.04-8.75,11.97-18.78,16.78-28.85,7.51-15.72,12.09-32.33,15.11-49.42.12-.65.23-1.31.43-1.95,1.27-4.16,2.32-4.73,6.42-3.51.95.28,1.9.61,2.84.93,2.65.89,5.3,1.78,7.95,2.68.4,2.95,1.09,5.89,1.14,8.85.15,8.66.05,17.33.05,25.99l-1.04,55.96Zm-34.61,65.51c0,1.18-.05,1.68,0,2.17.35,3.11,2.25,4.15,4.78,2.27,1.82-1.36,3.6-3.09,4.69-5.05,4.26-7.69,5.34-16.26,6.26-24.83.04-.41-.29-.85-.45-1.28-.44.2-1.03.29-1.3.63-2.97,3.76-6.15,7.4-8.76,11.41-3,4.61-4.82,9.79-5.23,14.68Z"/>
  <path d="m447.9,209.24c3.4-.42,6.69-.85,9.99-1.22,1.65-.19,3.32-.41,4.97-.39,4.58.06,7.74,2.81,8.27,7.04.59,4.74-1.55,8.31-6.05,9.57-2.55.71-5.21,1.05-7.84,1.41-33.58,4.65-62.21-15.14-73.82-40.7-.54-1.2-1.21-2.34-1.81-3.52-.85,1.13-1.87,2.18-2.52,3.41-4.22,7.92-8.35,15.89-11.25,24.43-.85,2.52-1.17,2.51-3.57,1.69-3.61-1.24-7.23-2.47-10.88-3.57-1.92-.57-2.67-1.53-2.33-3.6,2.55-15.23,5.11-30.46,7.49-45.72,1.31-8.37,2.32-16.8,3.38-25.21,2.48-19.61,5.16-39.19,9.03-58.59.93-4.67,4.66-7.2,9.6-6.68,4.21.44,7.32,3.66,7.28,8.08-.02,2.8-.62,5.61-1.09,8.39-1.42,8.35-3,16.67-4.32,25.03-.96,6.07-1.61,12.19-2.42,18.29-.93,6.91-1.9,13.82-2.83,20.73-.13.99-.27,1.99-.24,2.99.02.73.28,1.46.43,2.19.46-.45.99-.85,1.37-1.37,3.51-4.85,7.01-9.7,10.48-14.58,3.28-4.6,6.5-9.25,9.8-13.84,2.71-3.76,3-3.83,7.42-2.49,2.22.67,4.47,1.3,6.63,2.13,2.85,1.09,3.13,1.82,2.87,4.96-.26,3.19-2.05,5.65-3.92,7.94-4.25,5.21-7.31,11.1-10.38,17.01-2.57,4.95-4.08,10.12-4.01,15.78.06,5.17,1.41,9.86,4.18,14.15,8.52,13.19,20.28,21.85,35.74,25.1,3.39.71,6.92.78,10.34,1.14Z"/>
  <path d="m216.94,214.43c.7-19.16,4.62-37.53,14.32-54.31,3.6-6.22,8.18-11.7,13.9-16.16,2.79-2.17,5.81-3.68,9.29-4.58,4.12-1.07,7.8-.16,10.75,2.33,2.3,1.94,4.48,2.37,7.24,2.3,7.1-.19,8.61,1.3,8.5,8.32-.04,2.47-.32,4.97-.8,7.4-3.06,15.54-4.49,31.22-4.51,47.05,0,2.7.39,5.04,2.27,7.33,2.46,3,1.87,7.71-.65,10.56-2.18,2.47-6.27,3.35-9.58,2.05-4.68-1.84-7.67-5.13-8.69-10.1-.2-.98-.22-1.99-.43-2.96-.1-.44-.47-.83-.72-1.24-.34.24-.76.42-1,.74-.69.93-1.26,1.96-1.97,2.87-4.01,5.09-7.86,10.31-12.13,15.17-3.38,3.84-7.61,6.28-13.14,5.94-4.8-.3-8.38-2.34-10.28-6.66-1.18-2.68-1.86-5.66-2.3-8.57-.37-2.44-.08-4.98-.08-7.47Zm17-2.14c.07.39.18,1.04.29,1.68.57-.44,1.28-.78,1.7-1.33,9.05-11.99,16.13-25.09,21.9-38.93.83-1.98,2.03-4.14,1.82-6.09-.13-1.23-2.59-2.18-3.94-3.34-1.17-1.01-2.24-2.15-3.35-3.23-1.21,1.35-2.51,2.64-3.6,4.08-1.2,1.58-2.31,3.26-3.28,4.99-7.33,13-9.99,27.3-11.54,42.17Z"/>
  <path d="m348.28,137.45c-1.21,10.17-2.43,20.55-3.7,30.93-.87,7.09-1.86,14.17-2.69,21.26-.75,6.43-1.38,12.88-2.03,19.32-.19,1.87.28,3.37,1.6,4.96,4.27,5.14,1.86,12.72-4.52,14.84-7.37,2.46-12.97-1.39-14.12-9.39-.98-6.85-.29-13.63.4-20.39.98-9.58,2.41-19.11,3.67-28.66.91-6.91,1.86-13.82,2.77-20.73.15-1.15.17-2.32.21-3.48,0-.32-.15-.64-.23-.95-.4.16-.93.22-1.19.51-.67.74-1.23,1.57-1.81,2.38-8.82,12.31-15.02,25.88-18.59,40.54-2.19,9.01-3.45,18.25-5.11,27.38-.09.49-.09,1-.19,1.49-.98,5.12-1.01,5.13-6.43,4.41-2.47-.33-4.95-.56-7.39-1.01-3.61-.67-4.27-1.42-3.83-5,.64-5.1,1.33-10.22,2.39-15.25,2.2-10.42,3.46-20.96,4.51-31.53.89-8.93,1.85-17.85,3.02-26.74.54-4.11,2.13-7.68,6.84-8.79,3.48-.82,6.31.32,8.53,2.77,1.46,1.62,2.22,1.41,3.38-.14,3.6-4.8,7.38-9.47,12.2-13.11,1.97-1.49,4.12-2.89,6.41-3.75,6.2-2.33,12.89,1.08,14.51,7.49.84,3.34.92,6.88,1.38,10.64Z"/>
  <path d="m390.02,368.85c5.52-.03,9.1,3.02,9.69,7.91.5,4.13-2.3,8.04-6.9,9.01-4.06.86-8.2,1.37-12.33,1.87-26.02,3.14-51.3,9.27-75.81,18.57-10.1,3.84-20.21,7.66-30.34,11.42-1.53.57-3.19,1.02-4.81,1.1-3.99.2-7.18-2.14-8.34-5.81-1.24-3.96.02-8,3.79-9.83,4.92-2.39,10.04-4.43,15.19-6.3,12.96-4.72,25.91-9.48,39-13.82,14.38-4.77,29.16-8,44.13-10.29,8.05-1.23,16.12-2.38,24.18-3.55.99-.14,1.98-.22,2.56-.28Z"/>
  <path d="m37.25,363.87c-3.34-.07-5.44-1.61-6.44-4.16-.94-2.39-.35-5.09,1.74-6.75,1.42-1.13,3.02-2.09,4.63-2.94,18.75-9.94,35.99-22.1,52.47-35.4,4.27-3.45,8.69-6.73,13.1-10,3.34-2.48,6.16-2.48,8.58-.22,3.3,3.08,3.26,6.65-.42,9.88-2.62,2.3-5.53,4.27-8.33,6.36-11.47,8.55-22.71,17.45-34.5,25.53-8.9,6.1-18.49,11.18-27.81,16.65-1.11.65-2.46.87-3.01,1.06Z"/>
  <path d="m528.57,90.37c-.66,1.02-1.32,2.84-2.62,3.9-1.76,1.44-3.93,2.47-6.04,3.38-11.88,5.11-23.94,9.82-35.65,15.3-7.79,3.65-15.09,8.36-22.6,12.61-.87.49-1.64,1.15-2.53,1.59-3.23,1.6-6.61.89-8.4-1.71-2.21-3.2-1.94-6.11,1.55-8.64,4.15-3.01,8.63-5.59,13.04-8.24,13.57-8.17,28.35-13.74,42.91-19.77,3.52-1.46,7-3.02,10.5-4.54,2.4-1.04,4.7-1.36,7.06.29,1.83,1.28,2.41,3.06,2.8,5.84Z"/>
  <path d="m407.91,409.65c2.26-.16,3.99,1.34,5.6,3.12,7.92,8.75,15.92,17.42,23.75,26.25,7.5,8.46,14.83,17.07,22.24,25.62.54.63,1.15,1.21,1.66,1.86,2.46,3.14,2.47,6.64.04,8.99-2.71,2.63-6.35,2.61-9.27-.41-3.58-3.7-6.95-7.61-10.38-11.46-12.36-13.91-23.53-28.87-36.95-41.85-1.05-1.02-2.03-2.27-2.61-3.6-1.71-3.9,1.29-8.37,5.92-8.52Z"/>
  <path d="m13.62,302.9c-4.05.01-5.96-1.32-6.75-4.17-.89-3.22.17-6.27,3.22-7.52,3.51-1.44,7.17-2.59,10.87-3.46,12.91-3.05,25.85-5.93,38.78-8.89,2.1-.48,4.18-1.01,6.27-1.53,4.4-1.09,7.75.49,8.77,4.13,1.03,3.68-.86,6.85-5.37,8.07-5.92,1.61-11.92,2.91-17.91,4.2-11.66,2.51-23.39,4.72-34.75,8.49-1.25.41-2.57.58-3.12.7Z"/>
  <path d="m117.44,372.54c-.33.99-.77,2.41-1.28,3.79-2.45,6.6-6.61,12.23-10.37,18.09-3.22,5.03-6.47,10.05-9.72,15.06-.63.97-1.23,1.99-2.03,2.81-2.33,2.41-4.99,2.77-7.65,1.19-2.8-1.67-3.79-4.5-2.61-7.69.4-1.07.97-2.1,1.59-3.07,4.01-6.3,8.12-12.53,12.06-18.87,2.36-3.8,4.45-7.75,6.67-11.64.82-1.44,1.48-3.01,2.51-4.28,1.78-2.2,4.19-2.64,6.71-1.61,2.59,1.06,3.85,3.02,4.11,6.21Z"/>
  <path d="m500.93,294.47c-.14,4.37-3.85,7.05-8.41,5.87-4.18-1.07-8.33-2.27-12.45-3.58-8.39-2.66-16.74-5.4-25.1-8.16-1.09-.36-2.19-.85-3.13-1.49-2.67-1.82-3.49-4.61-2.34-7.42,1.2-2.92,3.55-4.31,6.74-3.92.81.1,1.6.41,2.39.66,11.88,3.74,23.75,7.48,35.63,11.23,1.11.35,2.28.59,3.27,1.16,2.14,1.22,3.51,3.01,3.41,5.64Z"/>
  <path d="m281.72,49.84c1.02-9.89,2.04-19.78,3.08-29.66.24-2.3.33-4.66.9-6.88,1.01-3.96,3.4-5.36,7.44-4.75,3.21.48,4.94,2.61,4.79,6.43-.12,2.97-.74,5.92-.96,8.9-.73,10.08-1.39,20.18-2.08,30.26-.03.5-.03,1-.13,1.49-.67,3.46-3.43,5.97-6.44,5.88-3.04-.1-5.8-2.72-6.19-6.14-.21-1.8-.04-3.65-.04-5.48-.13-.01-.26-.03-.38-.04Z"/>
  <path d="m44.16,56.67c2.36-.12,3.87,1.45,5.4,3.01,4.55,4.61,9.03,9.3,13.69,13.81,4.42,4.27,9.03,8.34,13.56,12.49,1.94,1.78,3.21,3.75,2.34,6.57-1.29,4.22-5.09,6-8.96,3.97-1.3-.68-2.51-1.64-3.58-2.66-8.52-8.15-17.01-16.34-25.46-24.56-1.06-1.03-2.06-2.23-2.73-3.53-2.2-4.33.88-9.19,5.73-9.08Z"/>
  <path d="m43.78,155.74c-1.78-.32-4.43-.64-7-1.29-9.65-2.44-19.28-4.98-28.91-7.53-1.6-.42-3.22-.94-4.67-1.71-2.5-1.34-3.69-4.26-3.01-6.78.82-3.04,3.02-4.78,6.18-4.72,1.14.02,2.3.28,3.42.57,11.72,3.09,23.26,6.85,35.28,8.73.49.08.95.31,1.43.45,4.06,1.2,5.96,3.69,5.4,7.12-.57,3.54-3.05,5.31-8.12,5.16Z"/>
  <path d="m117.93,53.19c.03,4.1-1.71,6.29-5.08,7.17-2.62.68-5.73-.73-6.77-3.71-1.81-5.15-3.34-10.4-4.77-15.67-1.65-6.07-3.1-12.19-4.56-18.31-1.01-4.25.45-6.96,4.22-8.14,3.41-1.06,6.71.82,7.87,4.89,2.13,7.48,4.03,15.02,6.05,22.53.77,2.87,1.61,5.73,2.39,8.6.3,1.11.56,2.23.66,2.63Z"/>
  <path d="m146.38,471.73c-4.13-.05-7.39-3.91-6.04-7.81,3.35-9.72,6.97-19.36,10.64-28.97.99-2.58,2.84-4.41,6-4.43,4.88-.02,7.72,3.74,6.01,8.3-2.5,6.68-5.14,13.3-7.65,19.98-.99,2.64-1.64,5.4-2.67,8.02-1.24,3.14-3.7,4.93-6.29,4.9Z"/>
  <path d="m487.85,177.96c-2.01,0-3.51.08-5-.02-3.38-.22-5.66-2.4-5.92-5.55-.29-3.43,1.7-6.14,5.28-6.64,5.75-.8,11.52-1.41,17.3-2,4.62-.47,9.25-.87,13.88-1.14,2.64-.15,4.45,1.31,5.25,3.76.83,2.54.52,4.99-1.6,6.83-.84.72-1.98,1.35-3.05,1.49-8.87,1.18-17.76,2.23-26.14,3.27Z"/>
  <path d="m431.74,63.21c.41-.76,1.1-2.63,2.27-4.11,4.21-5.33,8.59-10.53,12.89-15.79,1.57-1.92,2.97-4,4.67-5.8,2.07-2.19,5.41-2.48,7.7-.97,2.38,1.58,3.5,4.67,2.47,7.43-.46,1.22-1.21,2.38-2.02,3.4-5.38,6.74-10.79,13.46-16.24,20.15-1.88,2.3-4.16,3.87-7.36,2.89-2.76-.85-4.34-3.08-4.37-7.18Z"/>
  <path d="m484.4,403.96c.04,4.44-5.19,7.51-9.59,4.93-2.71-1.58-5.2-3.57-7.76-5.41-4.44-3.19-8.88-6.4-13.29-9.64-1.2-.88-2.39-1.82-3.42-2.89-2.23-2.28-2.55-4.71-1.12-7.24,1.48-2.62,4.27-3.85,7.22-3.01,1.09.31,2.16.88,3.09,1.55,7.13,5.14,14.21,10.36,21.35,15.5,2.01,1.44,3.36,3.17,3.52,6.2Z"/>
  <path d="m35.94,216.32c4.94.55,9.88,1.09,14.81,1.65.33.04.65.12.98.19,3.87.9,6.3,3.72,5.9,6.84-.46,3.56-3.45,5.9-7.53,5.71-1.65-.07-3.27-.59-4.91-.75-4.45-.43-8.87-1.37-13.39-.47-1.29.26-2.66.23-3.98.12-3.52-.3-5.68-2.39-5.93-5.57-.29-3.68,1.73-6.51,5.55-7.01,2.78-.36,5.64-.07,8.46-.07.02-.21.03-.42.05-.63Z"/>
  <path d="m362.01,469.05c.45,2.85-2.6,5.6-5.21,6.13-3.01.6-5.93-.99-6.91-4.33-1.21-4.14-2-8.4-2.92-12.62-.42-1.94-.9-3.89-1.02-5.86-.2-3.3,1.53-5.72,4.31-6.46,3.15-.84,5.91.41,7.5,3.44.38.73.73,1.52.91,2.32,1.1,5.03,2.15,10.07,3.19,15.11.13.65.1,1.33.16,2.27Z"/>
  <path d="m297.14,452.04c-.09.81-.08,2-.35,3.11-1.02,4.17-2.01,8.36-3.26,12.46-1.09,3.58-4.02,5.27-7.17,4.49-3.69-.91-5.69-3.6-4.94-7.35,1.01-5.02,2.24-10.01,3.62-14.94.94-3.37,3.66-5.04,6.68-4.61,3.63.52,5.4,2.64,5.41,6.83Z"/>
  <path d="m350.96,38.91c-.03.29.02,1-.2,1.6-1.69,4.68-3.2,9.45-5.22,13.99-1.67,3.76-4.89,4.85-8.19,3.4-2.93-1.28-4.49-3.98-3.45-7.39,1.55-5.07,3.44-10.05,5.51-14.93,1.22-2.87,3.62-3.71,6.6-3.03,3.03.69,4.92,2.98,4.94,6.36Z"/>
  <path d="m519.78,295.97c4.26,1.59,8.58,2.88,12.6,4.79,3.27,1.55,4.14,4.56,2.94,7.5-1.39,3.41-4.38,4.94-8.02,3.74-3.77-1.24-7.5-2.63-11.12-4.26-2.53-1.14-3.54-3.53-3.12-6.23.38-2.45,1.9-4.2,4.32-5.01.76-.25,1.57-.36,2.4-.54Z"/>
  <path d="m175.92,8.57c-.06-5.36,1.87-7.88,5.46-8.49,3.05-.52,5.87,1.46,6.81,5.13.77,3.03,1.39,6.13,1.71,9.23.39,3.76-1.46,6.22-4.83,7.05-2.95.72-6.12-1.09-7.22-4.58-.99-3.14-1.51-6.42-1.95-8.34Z"/>
</svg>