<svg width="18" height="19" viewBox="0 0 18 19" fill="none" xmlns="http://www.w3.org/2000/svg">
<path fill-rule="evenodd" clip-rule="evenodd" d="M0 9.5C0 5.90486 0 4.10729 0.856692 2.81255C1.23925 2.23439 1.73439 1.73925 2.31255 1.35669C3.60729 0.5 5.40486 0.5 9 0.5C12.5951 0.5 14.3927 0.5 15.6874 1.35669C16.2656 1.73925 16.7608 2.23439 17.1433 2.81255C18 4.10729 18 5.90486 18 9.5C18 13.0951 18 14.8927 17.1433 16.1874C16.7608 16.7656 16.2656 17.2608 15.6874 17.6433C14.3927 18.5 12.5951 18.5 9 18.5C5.40486 18.5 3.60729 18.5 2.31255 17.6433C1.73439 17.2608 1.23925 16.7656 0.856692 16.1874C0 14.8927 0 13.0951 0 9.5ZM13.6593 9.50023C13.6593 12.0735 11.5732 14.1596 8.99984 14.1596C6.42652 14.1596 4.34043 12.0735 4.34043 9.50023C4.34043 6.92691 6.42652 4.84082 8.99984 4.84082C11.5732 4.84082 13.6593 6.92691 13.6593 9.50023ZM8.99984 12.5832C10.7025 12.5832 12.0828 11.2029 12.0828 9.50023C12.0828 7.79753 10.7025 6.41722 8.99984 6.41722C7.29714 6.41722 5.91684 7.79753 5.91684 9.50023C5.91684 11.2029 7.29714 12.5832 8.99984 12.5832ZM13.8433 5.70155C14.4479 5.70155 14.9381 5.21138 14.9381 4.60673C14.9381 4.00207 14.4479 3.5119 13.8433 3.5119C13.2386 3.5119 12.7485 4.00207 12.7485 4.60673C12.7485 5.21138 13.2386 5.70155 13.8433 5.70155Z" fill="white"/>
</svg>
