<svg width="18" height="19" viewBox="0 0 18 19" fill="none" xmlns="http://www.w3.org/2000/svg">
<path d="M3.05176e-05 2.92005C3.05176e-05 2.34284 0.202739 1.86665 0.608139 1.49148C1.01354 1.1163 1.54058 0.928711 2.18922 0.928711C2.82629 0.928711 3.34172 1.1134 3.73555 1.48282C4.14095 1.86378 4.34366 2.36016 4.34366 2.972C4.34366 3.52611 4.14675 3.98786 3.75293 4.35728C3.34753 4.73823 2.8147 4.92871 2.15447 4.92871H2.1371C1.50002 4.92871 0.984592 4.73823 0.590764 4.35728C0.196936 3.97633 3.05176e-05 3.49725 3.05176e-05 2.92005ZM0.225899 18.0716V6.50447H4.08304V18.0716H0.225899ZM6.22011 18.0716H10.0773V11.6127C10.0773 11.2086 10.1236 10.8969 10.2162 10.6776C10.3784 10.2851 10.6245 9.95323 10.9547 9.68195C11.2848 9.41066 11.6989 9.27503 12.1969 9.27503C13.4942 9.27503 14.1429 10.1466 14.1429 11.8897V18.0716H18V11.4395C18 9.73101 17.5946 8.4352 16.7838 7.55208C15.973 6.66897 14.9016 6.22741 13.5695 6.22741C12.0753 6.22741 10.9112 6.8681 10.0773 8.14949V8.18412H10.0599L10.0773 8.14949V6.50447H6.22011C6.24327 6.87387 6.25486 8.02249 6.25486 9.95035C6.25486 11.8782 6.24327 14.5853 6.22011 18.0716Z" fill="white"/>
</svg>
