<svg width="18" height="15" viewBox="0 0 18 15" fill="none" xmlns="http://www.w3.org/2000/svg">
<path d="M12.027 0.201484V0.198242H12.871L13.1794 0.259834C13.385 0.29982 13.5717 0.352222 13.7394 0.417056C13.9071 0.481889 14.0694 0.557534 14.2263 0.643973C14.3832 0.730413 14.5255 0.818489 14.6532 0.90817C14.7798 0.996782 14.8934 1.09079 14.994 1.1902C15.0936 1.29069 15.2488 1.31662 15.4598 1.268C15.6708 1.21937 15.8981 1.15183 16.1415 1.06539C16.385 0.978953 16.6258 0.881702 16.8638 0.773641C17.1019 0.665579 17.2469 0.596969 17.2988 0.567794C17.3497 0.537549 17.3767 0.521341 17.38 0.519169L17.3832 0.514306L17.3994 0.506202L17.4157 0.498098L17.4319 0.489994L17.4481 0.481889L17.4514 0.477027L17.4562 0.473785L17.4611 0.470543L17.4644 0.465681L17.4806 0.460818L17.4968 0.457577L17.4936 0.481889L17.4887 0.506202L17.4806 0.530515L17.4725 0.554827L17.4644 0.571036L17.4562 0.587244L17.4481 0.611557C17.4427 0.627765 17.4373 0.649371 17.4319 0.67639C17.4265 0.70341 17.3751 0.811455 17.2777 1.00056C17.1803 1.18966 17.0586 1.38146 16.9125 1.57596C16.7664 1.77046 16.6355 1.9174 16.5197 2.01683C16.4029 2.11732 16.3255 2.18755 16.2876 2.22753C16.2498 2.26859 16.2038 2.30641 16.1497 2.34099L16.0685 2.39448L16.0523 2.40259L16.036 2.41069L16.0328 2.41555L16.0279 2.41879L16.0231 2.42204L16.0198 2.4269L16.0036 2.435L15.9873 2.44311L15.9841 2.44797L15.9792 2.45121L15.9744 2.45445L15.9711 2.45932L15.9679 2.46418L15.963 2.46742L15.9581 2.47066L15.9549 2.47552H16.036L16.4905 2.37827C16.7935 2.31344 17.0829 2.2351 17.3589 2.14325L17.7971 1.99738L17.8458 1.98117L17.8701 1.97306L17.8864 1.96496L17.9026 1.95685L17.9188 1.94875L17.935 1.94065L17.9675 1.93578L18 1.93254V1.96496L17.9919 1.9682L17.9837 1.97306L17.9805 1.97793L17.9756 1.98117L17.9708 1.98441L17.9675 1.98927L17.9643 1.99413L17.9594 1.99738L17.9545 2.00062L17.9513 2.00548L17.948 2.01034L17.9432 2.01358L17.935 2.02979L17.9269 2.046L17.9221 2.04924C17.9199 2.05248 17.8512 2.14432 17.7159 2.32479C17.5807 2.50632 17.5076 2.59816 17.4968 2.60033C17.486 2.60357 17.4708 2.61978 17.4514 2.64895C17.433 2.6792 17.3183 2.79969 17.1073 3.0104C16.8963 3.22111 16.6896 3.40858 16.4873 3.57283C16.2838 3.73816 16.181 3.9413 16.1789 4.18227C16.1756 4.42215 16.1632 4.69339 16.1415 4.99593C16.1199 5.29849 16.0793 5.62535 16.0198 5.97654C15.9603 6.32773 15.8683 6.72483 15.7439 7.16786C15.6195 7.61088 15.468 8.04311 15.2894 8.46453C15.1109 8.88595 14.9242 9.26414 14.7295 9.59912C14.5347 9.9341 14.3561 10.2177 14.1938 10.4501C14.0315 10.6824 13.8665 10.9012 13.6988 11.1065C13.5311 11.3118 13.319 11.5431 13.0626 11.8002C12.805 12.0563 12.6644 12.1968 12.6406 12.2216C12.6157 12.2454 12.5096 12.334 12.3224 12.4875C12.1363 12.642 11.9361 12.7965 11.7219 12.951C11.5087 13.1045 11.3129 13.2325 11.1343 13.3352C10.9558 13.4378 10.7405 13.555 10.4883 13.6869C10.2373 13.8198 9.9657 13.943 9.67355 14.0564C9.38139 14.1699 9.07301 14.2752 8.74839 14.3725C8.42377 14.4697 8.10998 14.5454 7.807 14.5994C7.50404 14.6534 7.16048 14.6994 6.77634 14.7372L6.20015 14.7939V14.802H5.14515V14.7939L5.00718 14.7858C4.91522 14.7804 4.83947 14.775 4.77995 14.7696C4.72045 14.7642 4.49591 14.7345 4.10637 14.6805C3.71683 14.6264 3.41116 14.5724 3.18933 14.5184C2.96752 14.4643 2.63748 14.3617 2.19925 14.2104C1.76102 14.0591 1.38608 13.9062 1.07445 13.7517C0.763906 13.5983 0.569136 13.501 0.490141 13.46C0.412233 13.42 0.324586 13.3703 0.227201 13.3108L0.0811237 13.2217L0.0778937 13.2168L0.0730083 13.2136L0.068139 13.2104L0.0648928 13.2055L0.048662 13.1974L0.0324312 13.1893L0.0292012 13.1844L0.0243157 13.1812L0.0194465 13.1779L0.0162003 13.1731L0.0129704 13.1682L0.0080849 13.165H-3.05176e-05V13.1326L0.0162003 13.1358L0.0324312 13.1407L0.10547 13.1488C0.154162 13.1542 0.28672 13.1623 0.503125 13.1731C0.719547 13.1839 0.949474 13.1839 1.19294 13.1731C1.4364 13.1623 1.68528 13.1379 1.93955 13.1001C2.19384 13.0623 2.49411 12.9975 2.84037 12.9056C3.18663 12.8138 3.50476 12.7046 3.79476 12.5782C4.08366 12.4507 4.28924 12.3556 4.41153 12.293C4.53271 12.2314 4.71774 12.1168 4.96661 11.9493L5.33992 11.6981L5.34316 11.6932L5.34803 11.69L5.35292 11.6868L5.35615 11.6819L5.35939 11.677L5.36426 11.6738L5.36915 11.6706L5.37238 11.6657L5.38861 11.6608L5.40484 11.6576L5.40808 11.6414L5.41295 11.6252L5.41784 11.6219L5.42107 11.6171L5.29122 11.609C5.20466 11.6036 5.1208 11.5982 5.03964 11.5928C4.95849 11.5874 4.83135 11.563 4.65822 11.5198C4.4851 11.4766 4.29845 11.4118 4.09826 11.3253C3.89808 11.2389 3.70331 11.1362 3.51395 11.0174C3.3246 10.8985 3.18771 10.7996 3.10331 10.7207C3.01999 10.6429 2.91178 10.5327 2.77869 10.3901C2.64668 10.2464 2.53198 10.0989 2.4346 9.9476C2.33721 9.79633 2.24416 9.62179 2.15544 9.42407L2.02071 9.12908L2.01259 9.10476L2.00448 9.08045L1.99961 9.06424L1.99636 9.04803L2.02071 9.05128L2.04506 9.05614L2.22359 9.08045C2.34263 9.09666 2.52929 9.10206 2.78356 9.09666C3.03785 9.09126 3.21368 9.08045 3.31106 9.06424C3.40845 9.04803 3.46796 9.03722 3.4896 9.03183L3.52206 9.02372L3.56264 9.01562L3.60322 9.00751L3.60646 9.00265L3.61133 8.99941L3.61622 8.99617L3.61945 8.9913L3.58698 8.9832L3.55452 8.9751L3.52206 8.96699L3.4896 8.95889L3.45714 8.95078C3.4355 8.94538 3.39764 8.93457 3.34352 8.91837C3.28942 8.90216 3.14335 8.84272 2.90529 8.74007C2.66725 8.63743 2.47788 8.53747 2.33721 8.44022C2.19619 8.34269 2.06173 8.23602 1.93469 8.12091C1.80808 8.00421 1.66905 7.85401 1.51755 7.67032C1.36607 7.48663 1.23082 7.27321 1.11178 7.03009C0.992761 6.78696 0.903492 6.55465 0.843973 6.33312C0.784694 6.11291 0.745584 5.88776 0.727127 5.66048L0.697896 5.3201L0.714126 5.32334L0.730357 5.3282L0.746588 5.33631L0.762819 5.34441L0.77905 5.35252L0.795281 5.36062L1.04686 5.47408C1.21459 5.54972 1.42288 5.61456 1.67175 5.66858C1.92063 5.7226 2.0694 5.75233 2.11809 5.75773L2.19113 5.76583H2.33721L2.33398 5.76097L2.32909 5.75773L2.32423 5.75448L2.32098 5.74962L2.31775 5.74476L2.31286 5.74152L2.30799 5.73828L2.30475 5.73341L2.28852 5.72531L2.27229 5.71721L2.26906 5.71234L2.26417 5.7091L2.2593 5.70586L2.25606 5.701L2.23983 5.69289L2.22359 5.68479L2.22036 5.67993C2.21712 5.67775 2.17058 5.64318 2.08076 5.57619C1.99203 5.50812 1.89898 5.42006 1.80159 5.312C1.70421 5.20393 1.60682 5.09047 1.50944 4.97162C1.41187 4.85249 1.32497 4.72503 1.24974 4.59072C1.17401 4.45566 1.09393 4.28383 1.00953 4.07529C0.926215 3.86783 0.862914 3.65874 0.819627 3.44803C0.776355 3.23732 0.752009 3.02932 0.746588 2.824C0.741183 2.61869 0.746588 2.44311 0.762819 2.29723C0.77905 2.15136 0.811511 1.98656 0.860204 1.80287C0.908896 1.61918 0.979241 1.42468 1.0712 1.21937L1.20917 0.911412L1.21728 0.8871L1.2254 0.862787L1.23028 0.859545L1.23351 0.854683L1.23676 0.84982L1.24163 0.846579L1.24651 0.84982L1.24974 0.854683L1.25299 0.859545L1.25786 0.862787L1.26275 0.866029L1.26597 0.870891L1.26922 0.875754L1.27409 0.878995L1.28221 0.895204L1.29032 0.911412L1.29521 0.914654L1.29844 0.919516L1.51755 1.16264C1.66363 1.32473 1.83676 1.50573 2.03694 1.70562C2.23713 1.90552 2.34804 2.00926 2.36967 2.01683C2.39132 2.02546 2.41836 2.05031 2.45083 2.09138C2.48329 2.13137 2.5915 2.227 2.77544 2.37827C2.9594 2.52955 3.20016 2.70515 3.49772 2.90505C3.79529 3.10494 4.12531 3.30215 4.4878 3.49665C4.8503 3.69115 5.23984 3.86674 5.65642 4.02343C6.07301 4.18011 6.36517 4.28276 6.53288 4.33139C6.70061 4.38001 6.98735 4.44214 7.39312 4.51778C7.79889 4.59343 8.10458 4.64205 8.31016 4.66366C8.51575 4.68526 8.65643 4.6977 8.73216 4.70094L8.84578 4.70418L8.84255 4.67987L8.83766 4.65555L8.8052 4.45295C8.78356 4.31788 8.77274 4.12878 8.77274 3.88566C8.77274 3.64253 8.79168 3.41832 8.82955 3.21301C8.86743 3.00769 8.92424 2.79969 8.99997 2.58898C9.07572 2.37827 9.14985 2.20915 9.22233 2.08166C9.29592 1.95523 9.39222 1.81098 9.51124 1.64889C9.63028 1.48681 9.78447 1.31933 9.97382 1.14643C10.1632 0.973539 10.3796 0.819559 10.6231 0.684494C10.8665 0.54943 11.0911 0.446766 11.2966 0.376535C11.5022 0.306304 11.6754 0.260369 11.816 0.238763C11.9567 0.217157 12.027 0.204726 12.027 0.201484Z" fill="white"/>
</svg>
