<svg width="20" height="15" viewBox="0 0 20 15" fill="none" xmlns="http://www.w3.org/2000/svg">
<path d="M10.4386 14.4797L6.37644 14.4038C5.06119 14.3773 3.74267 14.4301 2.45321 14.156C0.491647 13.7465 0.352683 11.7386 0.207272 10.0544C0.00690975 7.68653 0.0844759 5.27572 0.462585 2.92764C0.67604 1.61013 1.51607 0.823954 2.81515 0.738404C7.2005 0.427929 11.615 0.464723 15.9906 0.609571C16.4528 0.622849 16.9181 0.695425 17.3737 0.778036C19.6231 1.18095 19.6779 3.45635 19.8237 5.37181C19.9691 7.30703 19.9077 9.25219 19.6298 11.1742C19.4068 12.7656 18.9802 14.1002 17.1798 14.229C14.9241 14.3975 12.7201 14.5331 10.458 14.4899C10.4581 14.4797 10.4451 14.4797 10.4386 14.4797ZM8.05045 10.4507C9.75036 9.45329 11.4178 8.4725 13.108 7.48178C11.4049 6.48437 9.74064 5.50358 8.05045 4.51286V10.4507Z" fill="white"/>
</svg>
