<svg width="105" height="104" viewBox="0 0 105 104" fill="none" xmlns="http://www.w3.org/2000/svg">
<circle cx="52.5" cy="52" r="52" fill="#2E4163"/>
<path d="M52.5 41.3333C65.7548 41.3333 76.5 39.5425 76.5 37.3333C76.5 35.9465 72.2653 34.7245 65.8333 34.0069M52.5 33.3333C39.2452 33.3333 28.5 35.1242 28.5 37.3333C28.5 38.9039 33.9308 40.263 41.8333 40.9175" stroke="white" stroke-width="3" stroke-linecap="round"/>
<path d="M73.8334 46.6667C73.8334 46.6667 66.3904 49.3334 51.7644 49.3334C37.1384 49.3334 31.1667 46.6667 31.1667 46.6667" stroke="white" stroke-width="3" stroke-linecap="round"/>
<path d="M63.1666 62.6667C63.1666 62.6667 59.813 64 52.5 64C45.187 64 41.8333 62.6667 41.8333 62.6667" stroke="white" stroke-width="3" stroke-linecap="round"/>
<path d="M55.1667 70.6667C51.5624 70.6667 48.92 70.3429 47.1667 70.0144M63.1667 69.3334C62.3619 69.6083 61.4904 69.8786 60.5 70.1032" stroke="white" stroke-width="3" stroke-linecap="round"/>
<path d="M68.5 54.6667C68.5 54.6667 67.126 57.3334 52.5 57.3334M36.5 54.6667C36.5 54.6667 37.0841 55.8004 41.5448 56.5893" stroke="white" stroke-width="3" stroke-linecap="round"/>
</svg>
