<svg width="104" height="104" viewBox="0 0 104 104" fill="none" xmlns="http://www.w3.org/2000/svg">
<circle cx="52" cy="52" r="52" fill="#2E4163"/>
<circle cx="32.3333" cy="33.3333" r="8" stroke="white" stroke-width="3"/>
<circle cx="69.6667" cy="70.6667" r="8" stroke="white" stroke-width="3"/>
<path d="M48.3333 31.8333C47.5049 31.8333 46.8333 32.5049 46.8333 33.3333C46.8333 34.1617 47.5049 34.8333 48.3333 34.8333V31.8333ZM53.6667 70.6666L54.7273 71.7273C55.3131 71.1415 55.3131 70.1918 54.7273 69.606L53.6667 70.6666ZM64.8817 43.1662L65.687 44.4317L64.8817 43.1662ZM37.1183 60.8338L37.9236 62.0993H37.9236L37.1183 60.8338ZM50.7273 65.606C50.1415 65.0202 49.1918 65.0202 48.606 65.606C48.0202 66.1918 48.0202 67.1415 48.606 67.7273L50.7273 65.606ZM48.606 73.606C48.0202 74.1918 48.0202 75.1415 48.606 75.7273C49.1918 76.3131 50.1415 76.3131 50.7273 75.7273L48.606 73.606ZM46.472 56.6594C47.171 56.2146 47.377 55.2875 46.9322 54.5886C46.4875 53.8896 45.5603 53.6836 44.8614 54.1284L46.472 56.6594ZM54.4689 48.0145C53.77 48.4593 53.564 49.3864 54.0087 50.0853C54.4535 50.7842 55.3806 50.9903 56.0795 50.5455L54.4689 48.0145ZM62.0183 31.8333H48.3333V34.8333H62.0183V31.8333ZM53.6667 69.1666H39.9816V72.1666H53.6667V69.1666ZM54.7273 69.606L50.7273 65.606L48.606 67.7273L52.606 71.7273L54.7273 69.606ZM52.606 69.606L48.606 73.606L50.7273 75.7273L54.7273 71.7273L52.606 69.606ZM39.9816 69.1666C36.1466 69.1666 34.6881 64.1582 37.9236 62.0993L36.313 59.5683C30.5454 63.2386 33.1452 72.1666 39.9816 72.1666V69.1666ZM62.0183 34.8333C65.8534 34.8333 67.3119 39.8417 64.0764 41.9007L65.687 44.4317C71.4546 40.7614 68.8547 31.8333 62.0183 31.8333V34.8333ZM44.8614 54.1284L36.313 59.5683L37.9236 62.0993L46.472 56.6594L44.8614 54.1284ZM64.0764 41.9007L54.4689 48.0145L56.0795 50.5455L65.687 44.4317L64.0764 41.9007Z" fill="white"/>
</svg>
