<svg width="105" height="104" viewBox="0 0 105 104" fill="none" xmlns="http://www.w3.org/2000/svg">
<circle cx="52.5" cy="52" r="52" fill="#2E4163"/>
<path d="M48.507 33.3784L47.0776 29.7543C46.1551 27.4153 42.8449 27.4152 41.9224 29.7543L39.0637 37.0026C38.782 37.7167 38.2167 38.282 37.5026 38.5637L30.2543 41.4224C27.9153 42.3449 27.9152 45.6551 30.2543 46.5776L37.5026 49.4363C38.2167 49.718 38.782 50.2833 39.0637 50.9974L41.9224 58.2457C42.8449 60.5847 46.1551 60.5848 47.0776 58.2457L49.9363 50.9974C50.218 50.2833 50.7833 49.718 51.4974 49.4363L58.7457 46.5776C61.0847 45.6551 61.0848 42.3449 58.7457 41.4224L55.1216 39.993" stroke="white" stroke-width="3" stroke-linecap="round"/>
<path d="M64.4693 55.595C64.9575 54.3572 66.7092 54.3572 67.1974 55.595L69.3324 61.0082C69.4814 61.3862 69.7806 61.6853 70.1585 61.8343L75.5717 63.9693C76.8095 64.4575 76.8095 66.2092 75.5717 66.6974L70.1585 68.8324C69.7806 68.9814 69.4814 69.2806 69.3324 69.6585L67.1974 75.0717C66.7092 76.3095 64.9575 76.3095 64.4693 75.0717L62.3343 69.6585C62.1853 69.2806 61.8862 68.9814 61.5082 68.8324L56.095 66.6974C54.8572 66.2092 54.8572 64.4575 56.095 63.9693L61.5082 61.8343C61.8862 61.6853 62.1853 61.3862 62.3343 61.0082L64.4693 55.595Z" stroke="white" stroke-width="3"/>
</svg>
